<svg width="28" height="28" viewBox="0 0 28 28" fill="none" xmlns="http://www.w3.org/2000/svg">
<mask id="mask0_3_13" style="mask-type:luminance" maskUnits="userSpaceOnUse" x="3" y="3" width="22" height="22">
<path d="M24.5742 3H3V24.5977H24.5742V3Z" fill="white"/>
</mask>
<g mask="url(#mask0_3_13)">
<path d="M6.67969 24.5977H20.8945C23.3555 24.5977 24.5742 23.3789 24.5742 20.9648V6.65625C24.5742 4.24219 23.3555 3.02344 20.8945 3.02344H6.67969C4.23047 3.02344 3 4.23047 3 6.65625V20.9648C3 23.3906 4.23047 24.5977 6.67969 24.5977ZM6.70312 22.7109C5.53125 22.7109 4.88672 22.0898 4.88672 20.8711V6.75C4.88672 5.53125 5.53125 4.91016 6.70312 4.91016H20.8711C22.0312 4.91016 22.6875 5.53125 22.6875 6.75V20.8711C22.6875 22.0898 22.0312 22.7109 20.8711 22.7109H6.70312Z" fill="#FEFEFE"/>
<path d="M8.36719 13.793C8.36719 14.3672 8.76562 14.7539 9.36328 14.7539H12.8086V18.2109C12.8086 18.7969 13.207 19.207 13.7812 19.207C14.3672 19.207 14.7773 18.8086 14.7773 18.2109V14.7539H18.2344C18.8203 14.7539 19.2305 14.3672 19.2305 13.793C19.2305 13.207 18.8203 12.7969 18.2344 12.7969H14.7773V9.35156C14.7773 8.75391 14.3672 8.34375 13.7812 8.34375C13.207 8.34375 12.8086 8.75391 12.8086 9.35156V12.7969H9.36328C8.76562 12.7969 8.36719 13.207 8.36719 13.793Z" fill="#FEFEFE"/>
</g>
</svg>
