<svg width="28" height="28" viewBox="0 0 28 28" fill="none" xmlns="http://www.w3.org/2000/svg">
<g clip-path="url(#clip0_2_2)">
<mask id="mask0_2_2" style="mask-type:luminance" maskUnits="userSpaceOnUse" x="4" y="0" width="21" height="28">
<path d="M24.0835 0H4V27.7983H24.0835V0Z" fill="white"/>
</mask>
<g mask="url(#mask0_2_2)">
<path fill-rule="evenodd" clip-rule="evenodd" d="M10.9585 9.96969H7.57543C6.44397 9.96969 5.82166 10.5753 5.82166 11.7416V22.7325C5.82166 23.8989 6.44397 24.5045 7.57543 24.5045H20.4967C21.6169 24.5045 22.2619 23.8989 22.2619 22.7325V11.7416C22.2619 10.5753 21.6169 9.96969 20.4967 9.96969H17.1251V8.16406H20.5307C22.8955 8.16406 24.0835 9.3304 24.0835 11.6407V22.8334C24.0835 25.1437 22.8955 26.3101 20.5307 26.3101H7.5528C5.18804 26.3101 4 25.1437 4 22.8334V11.6407C4 9.3304 5.18804 8.16406 7.5528 8.16406H10.9585V9.96969Z" fill="white" fill-opacity="0.85"/>
<path d="M14.036 17.531C14.5225 17.531 14.9412 17.1273 14.9412 16.6562V5.13838L14.8733 3.45611L15.6314 4.25239L17.3512 6.06923C17.5096 6.24867 17.7359 6.33839 17.9622 6.33839C18.4261 6.33839 18.7882 6.00194 18.7882 5.54212C18.7882 5.30661 18.6863 5.12716 18.5167 4.95894L14.6923 1.30281C14.4659 1.0785 14.2736 1 14.036 1C13.8098 1 13.6173 1.0785 13.3797 1.30281L9.5554 4.95894C9.38567 5.12716 9.29517 5.30661 9.29517 5.54212C9.29517 6.00194 9.6346 6.33839 10.1098 6.33839C10.3248 6.33839 10.5737 6.24867 10.7321 6.06923L12.4407 4.25239L13.21 3.45611L13.1421 5.13838V16.6562C13.1421 17.1273 13.5495 17.531 14.036 17.531Z" fill="white" fill-opacity="0.85"/>
</g>
</g>
<defs>
<clipPath id="clip0_2_2">
<rect width="28" height="28" fill="white"/>
</clipPath>
</defs>
</svg>
