<svg width="32" height="32" viewBox="0 0 32 32" fill="none" xmlns="http://www.w3.org/2000/svg">
<path d="M2 13.3335C1.46957 13.3335 0.96086 13.6144 0.585787 14.1145C0.210714 14.6146 0 15.2929 0 16.0001C0 16.7074 0.210714 17.3856 0.585787 17.8857C0.96086 18.3858 1.46957 18.6668 2 18.6668V13.3335ZM30 18.6668C30.5304 18.6668 31.0391 18.3858 31.4142 17.8857C31.7893 17.3856 32 16.7074 32 16.0001C32 15.2929 31.7893 14.6146 31.4142 14.1145C31.0391 13.6144 30.5304 13.3335 30 13.3335V18.6668ZM2 0.00012207C1.46957 0.00012207 0.96086 0.281074 0.585787 0.781171C0.210714 1.28127 0 1.95954 0 2.66679C0 3.37403 0.210714 4.05231 0.585787 4.55241C0.96086 5.0525 1.46957 5.33346 2 5.33346V0.00012207ZM30 5.33346C30.5304 5.33346 31.0391 5.0525 31.4142 4.55241C31.7893 4.05231 32 3.37403 32 2.66679C32 1.95954 31.7893 1.28127 31.4142 0.781171C31.0391 0.281074 30.5304 0.00012207 30 0.00012207V5.33346ZM2 26.6668C1.46957 26.6668 0.96086 26.9477 0.585787 27.4478C0.210714 27.9479 0 28.6262 0 29.3335C0 30.0407 0.210714 30.719 0.585787 31.2191C0.96086 31.7192 1.46957 32.0001 2 32.0001V26.6668ZM30 32.0001C30.5304 32.0001 31.0391 31.7192 31.4142 31.2191C31.7893 30.719 32 30.0407 32 29.3335C32 28.6262 31.7893 27.9479 31.4142 27.4478C31.0391 26.9477 30.5304 26.6668 30 26.6668V32.0001ZM2 18.6668H30V13.3335H2V18.6668ZM2 5.33346H30V0.00012207H2V5.33346ZM2 32.0001H30V26.6668H2V32.0001Z" fill="#FEFEFE"/>
</svg>
