<svg width="117" height="117" viewBox="0 0 117 117" fill="none" xmlns="http://www.w3.org/2000/svg">
<path d="M71.7129 58.0613L113.295 16.5758C115.116 14.7548 116.139 12.2851 116.139 9.70985C116.139 7.13464 115.116 4.6649 113.295 2.84395C111.474 1.023 109.004 0 106.429 0C103.854 0 101.384 1.023 99.5633 2.84395L58.0778 44.4262L16.5923 2.84395C14.7713 1.023 12.3016 -1.91868e-08 9.72636 0C7.15114 1.91868e-08 4.6814 1.023 2.86045 2.84395C1.0395 4.6649 0.0165033 7.13464 0.0165033 9.70985C0.0165033 12.2851 1.0395 14.7548 2.86045 16.5758L44.4427 58.0613L2.86045 99.5468C1.95407 100.446 1.23466 101.515 0.743714 102.694C0.252767 103.872 0 105.136 0 106.413C0 107.689 0.252767 108.953 0.743714 110.132C1.23466 111.31 1.95407 112.38 2.86045 113.279C3.75943 114.185 4.82898 114.904 6.00739 115.395C7.1858 115.886 8.44977 116.139 9.72636 116.139C11.003 116.139 12.2669 115.886 13.4453 115.395C14.6237 114.904 15.6933 114.185 16.5923 113.279L58.0778 71.6964L99.5633 113.279C100.462 114.185 101.532 114.904 102.71 115.395C103.889 115.886 105.153 116.139 106.429 116.139C107.706 116.139 108.97 115.886 110.148 115.395C111.327 114.904 112.396 114.185 113.295 113.279C114.201 112.38 114.921 111.31 115.412 110.132C115.903 108.953 116.156 107.689 116.156 106.413C116.156 105.136 115.903 103.872 115.412 102.694C114.921 101.515 114.201 100.446 113.295 99.5468L71.7129 58.0613Z" fill="#FEFEFE"/>
</svg>
