<svg id="Calque_1" data-name="Calque 1" xmlns="http://www.w3.org/2000/svg" viewBox="0 0 354.74 354.75"><defs><style>.cls-1{fill:#eaeaea;}</style></defs><path class="cls-1" d="M1356.72,452.47l33.69,33.77c-.73.79-1.62,1.8-2.56,2.74Q1302.94,573.91,1218,658.83c-6.12,6.12-9.55,6.1-15.68,0-6.44-6.44-12.9-12.86-19.31-19.32-4.59-4.62-4.67-8.75-.14-13.28q86.22-86.26,172.48-172.5C1355.79,453.28,1356.26,452.89,1356.72,452.47Z" transform="translate(-1179.52 -308.66)"/><path class="cls-1" d="M1478.51,418.17c-1.35,2.39-2.06,4.63-3.53,6.11q-27.64,27.89-55.5,55.57c-3.88,3.85-8.35,3.83-12.2,0q-22.15-22-44.16-44.16c-4-4-3.91-8.4.14-12.47q27.46-27.54,55-55c4.17-4.15,8.61-4.18,12.77,0q21.87,21.76,43.59,43.67C1476.26,413.51,1477.15,415.91,1478.51,418.17Z" transform="translate(-1179.52 -308.66)"/><path class="cls-1" d="M1400.91,362.09l-33,33c-.4-.36-1.17-1-1.85-1.65q-34.92-34.89-69.78-69.82a13.51,13.51,0,0,1-3.37-4.83c-2-5.75,3.33-11.48,9.6-9.89,9.62,2.45,19.32,5,28.51,8.64,25.6,10.22,48,25.61,68.88,43.48A11.11,11.11,0,0,1,1400.91,362.09Z" transform="translate(-1179.52 -308.66)"/><path class="cls-1" d="M1447.64,475.11l33.3-33.22c2.27,2.73,4.76,5.62,7.15,8.6,19.13,23.91,35,49.63,43.57,79.33,1,3.46,1.74,7,2.41,10.55.77,4-.85,7.53-4.16,9.14-3.57,1.74-6.82,1-9.57-1.75-7.7-7.64-15.34-15.33-23-23Q1472.49,499.93,1447.64,475.11Z" transform="translate(-1179.52 -308.66)"/></svg>