<svg width="914" height="914" viewBox="0 0 914 914" fill="none" xmlns="http://www.w3.org/2000/svg">
<path d="M646.955 133.199C646.955 128.153 644.95 123.313 641.382 119.745C637.813 116.176 632.974 114.171 627.927 114.171H532.786C484.878 111.785 437.973 128.457 402.319 160.546C366.665 192.635 345.161 237.531 342.505 285.425V388.177H247.364C242.318 388.177 237.478 390.181 233.909 393.75C230.341 397.318 228.336 402.158 228.336 407.205V506.151C228.336 511.198 230.341 516.038 233.909 519.606C237.478 523.174 242.318 525.179 247.364 525.179H342.505V780.156C342.505 785.203 344.51 790.043 348.078 793.611C351.646 797.18 356.486 799.185 361.533 799.185H475.702C480.748 799.185 485.588 797.18 489.157 793.611C492.725 790.043 494.73 785.203 494.73 780.156V525.179H594.437C598.669 525.24 602.8 523.888 606.177 521.338C609.554 518.788 611.985 515.185 613.085 511.098L640.486 412.152C641.243 409.341 641.344 406.393 640.783 403.536C640.222 400.679 639.012 397.989 637.247 395.673C635.483 393.357 633.21 391.476 630.605 390.177C627.999 388.877 625.13 388.193 622.219 388.177H494.73V285.425C495.677 276.005 500.1 267.276 507.137 260.943C514.174 254.609 523.319 251.127 532.786 251.174H627.927C632.974 251.174 637.813 249.169 641.382 245.601C644.95 242.032 646.955 237.192 646.955 232.146V133.199Z" fill="#FEFEFE"/>
</svg>
