<svg width="914" height="914" viewBox="0 0 914 914" fill="none" xmlns="http://www.w3.org/2000/svg">
<path fill-rule="evenodd" clip-rule="evenodd" d="M268.398 2.74005C317.11 0.507324 332.637 0 456.675 0C580.738 0 596.24 0.532649 644.925 2.74005C693.561 4.94746 726.774 12.6856 755.823 23.9755C786.291 35.4467 813.891 53.4202 836.704 76.6455C859.932 99.4556 877.909 127.058 889.376 157.528C900.664 186.577 908.377 219.788 910.611 268.398C912.844 317.11 913.351 332.637 913.351 456.675C913.351 580.713 912.82 596.24 910.611 644.955C908.402 693.561 900.664 726.774 889.376 755.823C877.705 785.839 862.075 811.334 836.704 836.704C813.895 859.932 786.291 877.909 755.823 889.376C726.774 900.664 693.561 908.377 644.955 910.611C596.24 912.844 580.713 913.351 456.675 913.351C332.637 913.351 317.11 912.82 268.398 910.611C219.788 908.402 186.577 900.664 157.528 889.376C127.514 877.705 102.016 862.075 76.6455 836.704C53.4161 813.895 35.4413 786.291 23.9755 755.823C12.6856 726.774 4.97278 693.561 2.74005 644.955C0.507324 596.24 0 580.738 0 456.675C0 332.612 0.532649 317.11 2.74005 268.424C4.94746 219.788 12.6856 186.577 23.9755 157.528C35.4467 127.06 53.4202 99.4589 76.6455 76.6455C99.4552 53.4161 127.058 35.4413 157.528 23.9755C186.577 12.6856 219.788 4.97278 268.398 2.74005ZM641.222 84.9416C593.068 82.7596 578.608 82.2776 456.675 82.2776C334.743 82.2776 320.282 82.7596 272.128 84.9416C227.602 86.9714 203.424 94.4048 187.338 100.672C166.027 108.942 150.804 118.837 134.821 134.821C118.863 150.804 108.942 166.027 100.672 187.338C94.4048 203.424 86.9714 227.602 84.9416 272.128C82.7596 320.282 82.2776 334.743 82.2776 456.675C82.2776 578.608 82.7596 593.068 84.9416 641.222C86.9714 685.748 94.4048 709.927 100.672 726.014C107.988 745.851 119.657 763.794 134.821 778.532C149.555 793.694 167.501 805.364 187.338 812.679C203.424 818.948 227.602 826.379 272.128 828.409C320.282 830.593 334.718 831.075 456.675 831.075C578.633 831.075 593.068 830.593 641.222 828.409C685.748 826.379 709.927 818.948 726.014 812.679C747.325 804.409 762.548 794.516 778.532 778.532C793.694 763.798 805.364 745.851 812.679 726.014C818.948 709.927 826.379 685.748 828.409 641.222C830.593 593.068 831.075 578.608 831.075 456.675C831.075 334.743 830.593 320.282 828.409 272.128C826.379 227.602 818.948 203.424 812.679 187.338C804.409 166.027 794.516 150.804 778.532 134.821C762.548 118.863 747.325 108.942 726.014 100.672C709.927 94.4048 685.748 86.9714 641.222 84.9416ZM398.366 597.452C416.853 605.112 436.665 609.051 456.675 609.051C497.091 609.051 535.846 592.997 564.422 564.422C593.001 535.846 609.056 497.087 609.056 456.675C609.056 416.264 593.001 377.505 564.422 348.928C535.846 320.352 497.091 304.298 456.675 304.298C436.665 304.298 416.853 308.239 398.366 315.897C379.875 323.555 363.079 334.778 348.93 348.928C334.78 363.078 323.556 379.875 315.898 398.362C308.241 416.849 304.3 436.665 304.3 456.675C304.3 476.686 308.241 496.502 315.898 514.989C323.556 533.476 334.78 550.273 348.93 564.422C363.079 578.57 379.875 589.796 398.366 597.452ZM290.697 290.695C334.717 246.675 394.422 221.944 456.675 221.944C518.933 221.944 578.637 246.675 622.656 290.695C666.676 334.716 691.407 394.422 691.407 456.675C691.407 518.929 666.676 578.633 622.656 622.656C578.637 666.676 518.933 691.407 456.675 691.407C394.422 691.407 334.717 666.676 290.697 622.656C246.676 578.633 221.946 518.929 221.946 456.675C221.946 394.422 246.676 334.716 290.697 290.695ZM743.455 256.916C753.859 246.511 759.705 232.398 759.705 217.682C759.705 202.966 753.859 188.853 743.455 178.447C733.047 168.042 718.936 162.196 704.219 162.196C689.505 162.196 675.39 168.042 664.986 178.447C654.578 188.853 648.732 202.966 648.732 217.682C648.732 232.398 654.578 246.511 664.986 256.916C675.39 267.322 689.505 273.168 704.219 273.168C718.936 273.168 733.047 267.322 743.455 256.916Z" fill="#FEFEFE"/>
</svg>
