<svg width="32" height="32" viewBox="0 0 32 32" fill="none" xmlns="http://www.w3.org/2000/svg">
<path fill-rule="evenodd" clip-rule="evenodd" d="M4 0C1.79086 0 0 1.79086 0 4V28C0 30.2091 1.79086 32 4 32H28C30.2091 32 32 30.2091 32 28V4C32 1.79086 30.2091 0 28 0H4ZM12.4444 12C12.199 12 12 12.2239 12 12.5C12 12.7761 12.199 13 12.4444 13H19.5556C19.801 13 20 12.7761 20 12.5C20 12.2239 19.801 12 19.5556 12H12.4444ZM12 16C12 15.7239 12.199 15.5 12.4444 15.5H19.5556C19.801 15.5 20 15.7239 20 16C20 16.2761 19.801 16.5 19.5556 16.5H12.4444C12.199 16.5 12 16.2761 12 16ZM12.4444 19C12.199 19 12 19.2239 12 19.5C12 19.7761 12.199 20 12.4444 20H19.5556C19.801 20 20 19.7761 20 19.5C20 19.2239 19.801 19 19.5556 19H12.4444Z" fill="#EAEAEA"/>
</svg>
