<svg width="32" height="32" viewBox="0 0 32 32" fill="none" xmlns="http://www.w3.org/2000/svg">
<path fill-rule="evenodd" clip-rule="evenodd" d="M0 4C0 1.79086 1.79086 0 4 0H28C30.2091 0 32 1.79086 32 4V28C32 30.2091 30.2091 32 28 32H4C1.79086 32 0 30.2091 0 28V4ZM12 12.5C12 12.2239 12.199 12 12.4444 12H19.5556C19.801 12 20 12.2239 20 12.5C20 12.7761 19.801 13 19.5556 13H12.4444C12.199 13 12 12.7761 12 12.5ZM12.4444 15.5C12.199 15.5 12 15.7239 12 16C12 16.2761 12.199 16.5 12.4444 16.5H19.5556C19.801 16.5 20 16.2761 20 16C20 15.7239 19.801 15.5 19.5556 15.5H12.4444ZM12 19.5C12 19.2239 12.199 19 12.4444 19H19.5556C19.801 19 20 19.2239 20 19.5C20 19.7761 19.801 20 19.5556 20H12.4444C12.199 20 12 19.7761 12 19.5ZM5 1C2.79086 1 1 2.79086 1 5V27C1 29.2091 2.79086 31 5 31H27C29.2091 31 31 29.2091 31 27V5C31 2.79086 29.2091 1 27 1H5Z" fill="#EAEAEA"/>
</svg>
