<svg id="Calque_1" data-name="Calque 1" xmlns="http://www.w3.org/2000/svg" viewBox="0 0 383.25 383.26"><defs><style>.cls-1{fill:#eaeaea;}</style></defs><path class="cls-1" d="M693.24,372V360.79c.26-.94.57-1.87.76-2.83a43.67,43.67,0,0,1,11.82-22.76l20.69,20.72c-1,2.78-2.75,5.69-3.15,8.77-1.34,10.22,6.28,16.68,17.46,14.52,8-1.55,16-3.85,23.87-6.07,29.76-8.36,59.56-16.38,90.67-17.93,33.45-1.66,65,4.88,93.78,22.32,9.77,5.91,18.86,12.93,27.77,19.11l37.16-37.15-20.88-20.17c17.43-4.11,34.64-8.13,51.83-12.25,10-2.4,20-5,30-7.45h1.49c-6.54,27.72-13.09,55.43-19.77,83.69q-10.83-11-20.56-20.88c-12.7,12.66-24.91,24.84-37.24,37.12.56.68,1.34,1.64,2.13,2.59,13.66,16.3,24.42,34.25,31.36,54.42,10.89,31.68,11.12,64,4.6,96.35-4.67,23.16-11.34,45.9-17,68.87a127.09,127.09,0,0,0-3.42,18.67c-.53,5.91,2.82,9.8,8.5,11.68s10.74.31,14.89-3l21,21.09a43.87,43.87,0,0,1-28.45,12.57c-22.46,1.53-47.47-15.33-46-44.14.14-2.64-.17-4.2-3.19-5.11q-72-21.76-144-43.78c-3.72-1.14-7.45-2.23-11.46-3.44,0,9.8.09,19-.08,28.25a7.79,7.79,0,0,1-1.86,4.87Q795.85,670.35,765.42,701a5.31,5.31,0,0,1-3.07,1.75c-6.69.16-13.39.08-20.5.08V654.22H693.24V632.51q30.57-30.54,61.09-61.16a10,10,0,0,1,8.16-3.28c9,.21,18,.07,27.32.07-.47-1.58-.84-2.86-1.23-4.14q-22.94-75.21-45.78-150.45c-1-3.25-2.21-4.17-5.56-4.1-19.06.39-33.59-9-40.55-26.1C695.21,379.71,694.37,375.8,693.24,372ZM817.5,556.14,955.2,418.45c-25.1-21.69-54.47-33.15-88.2-33.3-23.13-.11-45.61,4.2-67.9,9.78-9.38,2.35-18.7,5-28.45,7.57Q794.29,480,817.5,556.14Zm160-115.39L839.76,578.53l153.42,46.78a9.52,9.52,0,0,0,.79-1.39c6.57-23.27,12.87-46.61,15.64-70.71,2.71-23.54,1.81-46.79-6.43-69.36A139.43,139.43,0,0,0,977.53,440.75ZM772,650.56c8.34-8,16.6-16,24.8-24a4.08,4.08,0,0,0,1.23-2.53c.09-8.55,0-17.1,0-26-4.83,0-9.36.53-13.72-.1-10.29-1.49-18,1.88-24.46,10-4.49,5.67-10.23,10.35-15.41,15.48l.36.86H772Z" transform="translate(-693.24 -319.62)"/></svg>