<?xml version="1.0" encoding="utf-8"?>
<svg class="auto-color" height="164" viewBox="0 0 164 164" width="164" xmlns="http://www.w3.org/2000/svg"><style>
.auto-color {
  fill: #000000; /* Light mode */
}
@media (prefers-color-scheme: dark) {
  .auto-color {
    fill: #ffffff; /* Dark mode */
  }
}
</style>
<path class="auto-color" d="M48.2719 18.6638C70.1688 16.7066 94.5923 19.827 116.749 18.5576C132.693 19.9556 143.924 30.9498 145.925 46.194C145.643 68.3837 146.243 90.5957 145.879 112.785C145.585 130.759 134.862 143.123 116.218 145.494C94.102 144.202 70.0419 147.166 48.1566 145.449C30.6898 144.079 19.378 130.334 18.4031 113.898C19.4299 93.1457 17.111 71.286 18.4031 50.6677C19.4934 33.2482 29.64 20.3303 48.2719 18.6694V18.6638ZM47.1183 33.757C39.8328 35.1495 34.9931 40.2328 34.0355 47.3572L33.9836 115.57C35.0219 123.55 40.4096 129.288 48.6931 130.389H116.801C124.623 129.114 129.595 123.584 130.933 116.129V47.3068C129.878 39.9811 124.409 34.5791 116.801 33.6061L47.1183 33.757Z"/>
<path class="auto-color" d="M98.8281 74.6623L60.0197 112.193C51.9229 117.435 43.6977 110.412 48.3503 102.119C61.1171 89.6142 74.4561 77.6303 86.5691 64.5823H72.267C71.5548 64.5823 69.068 62.1799 68.5601 61.4184C65.5537 56.9384 67.8771 51.7528 72.9617 50.1232L108.489 50C111.496 50.1792 113.229 52.7776 114 55.3536L113.907 87.7214C112.179 92.879 105.973 95.0406 101.455 91.4734C100.609 90.807 98.8398 88.1078 98.8398 87.2622V74.6623H98.8281Z"/>
</svg>