<svg xmlns="http://www.w3.org/2000/svg" width="220" height="220" viewBox="0 0 160 160" fill="none">
<path d="M115.269 68.7336L125.808 48H142.568L124.815 79.23L143 110.892H126.111L115.269 89.8128L104.384 110.892H87.4944L105.68 79.23L87.9263 48H104.686L115.269 68.7336Z" fill="#686868"/>
<path d="M84.1251 110.892H69.5251V48H84.1251V110.892Z" fill="#7c8491ff"/>
<path d="M66.156 48V89.0785C66.156 94.0027 65.1193 98.1495 63.0459 101.519C61.0014 104.888 58.1361 107.436 54.4501 109.164C50.7641 110.892 46.5022 111.756 41.6644 111.756C36.8265 111.756 32.5502 110.892 28.8354 109.164C25.1207 107.436 22.2122 104.888 20.11 101.519C18.0367 98.1495 17 94.0027 17 89.0785V48H31.6863V89.0785C31.6863 91.6702 32.0751 93.7724 32.8526 95.385C33.6301 96.9688 34.7532 98.1351 36.2218 98.8838C37.7192 99.6037 39.5334 99.9637 41.6644 99.9637C43.8241 99.9637 45.6239 99.6037 47.0638 98.8838C48.5324 98.1351 49.6411 96.9688 50.3898 95.385C51.1385 93.7724 51.5129 91.6702 51.5129 89.0785V48H66.156Z" fill="#374151"/>
</svg>