<svg xmlns="http://www.w3.org/2000/svg" width="160" height="160" viewBox="0 0 160 160" fill="none">
<path d="M65.2601 93.4596C58.1025 93.4596 52.3001 87.6572 52.3001 80.4996V80.4996C52.3001 73.3419 58.1024 67.5396 65.2601 67.5396H118.72C125.878 67.5396 131.68 73.3419 131.68 80.4996V80.4996C131.68 87.6572 125.878 93.4596 118.72 93.4596H65.2601Z" fill="#939393"/>
<path d="M84.7001 93.4596V67.5396H131.68V93.4596H84.7001Z" fill="#939393"/>
<path d="M131.68 121H64.8781C56.8703 121 50.1269 119.292 44.6479 115.875C39.1688 112.506 35.0244 107.785 32.2147 101.711C29.4049 95.6371 28.0001 88.6142 28.0001 80.6424C28.0001 72.6705 29.4049 65.6239 32.2147 59.5026C35.0244 53.3814 39.1688 48.5888 44.6479 45.1248C50.1269 41.7083 56.8703 40 64.8781 40L131.68 40V64.2004H64.8781C60.6635 64.2004 57.2449 64.8409 54.6225 66.1221C52.0469 67.4033 50.1503 69.254 48.9327 71.674C47.762 74.1415 47.1766 77.1309 47.1766 80.6424C47.1766 84.2012 47.762 87.167 48.9327 89.5395C50.1503 91.9596 52.0469 93.7865 54.6225 95.0202C57.2449 96.254 60.6635 96.8708 64.8781 96.8708H131.68V121Z" fill="#7534B7"/>
</svg>