<svg id="Calque_1" data-name="Calque 1" xmlns="http://www.w3.org/2000/svg" xmlns:xlink="http://www.w3.org/1999/xlink" viewBox="0 0 656.78 656.8"><defs><style>.cls-1{fill:url(#Dégradé_sans_nom_6);}</style><linearGradient id="Dégradé_sans_nom_6" x1="130.17" y1="525.79" x2="595.58" y2="62.38" gradientUnits="userSpaceOnUse"><stop offset="0" stop-color="#0041aa"/><stop offset="1" stop-color="#06f"/></linearGradient></defs><path class="cls-1" d="M0,131.19V525.61A131.21,131.21,0,0,0,131.19,656.8H525.61A131.21,131.21,0,0,0,656.8,525.61V131.19A131.21,131.21,0,0,0,525.61,0H131.19A131.21,131.21,0,0,0,0,131.19ZM432.19,532l-28.85-85.66H377.75a56.49,56.49,0,0,1-55-69.38h57.47L328,221.33,276.29,376.94l-23.22,69.6A125.26,125.26,0,0,1,134.31,532h-.79L288.29,116.21h79.38L523.28,532H432.19Z" transform="translate(-0.02)"/></svg>