<svg id="Calque_1" data-name="Calque 1" xmlns="http://www.w3.org/2000/svg" viewBox="0 0 656.8 656.8"><defs><style>.cls-1{fill:#eaeaea;}</style></defs><path class="cls-1" d="M342,342.79V737.21A131.2,131.2,0,0,0,473.17,868.4H867.59A131.2,131.2,0,0,0,998.78,737.21V342.79A131.2,131.2,0,0,0,867.59,211.6H473.17A131.2,131.2,0,0,0,342,342.79ZM774.17,743.58l-28.85-85.66H719.73a56.49,56.49,0,0,1-55-69.38H722.2L669.94,432.93,618.27,588.54l-23.22,69.6a125.26,125.26,0,0,1-118.76,85.42h-.79L630.27,327.81h79.38L865.26,743.56H774.17Z" transform="translate(-341.98 -211.6)"/></svg>