<svg xmlns="http://www.w3.org/2000/svg" width="527" height="220" viewBox="0 0 527 220" fill="none">

  <style>
    :root { color-scheme: light dark; }
    path, rect { fill: black; }
    @media (prefers-color-scheme: dark) {
      path, rect { fill: white; }
    }
  </style>

<path d="M93.1204 50.353L93.0999 120.623C94.2733 132.635 96.4451 142.326 109.049 146.361C116.624 148.785 129.331 148.239 136.706 145.151C147.534 140.617 148.61 131.688 149.747 121.138L149.727 50.353H175.974L175.994 128.343C174.039 152.161 157.204 167.43 134.004 170.755C102.456 175.279 70.0693 162.999 66.8528 127.828L66.8734 50.353H93.1204Z" fill="#171717"/>
<path d="M341.181 50.353L303.066 108.251L342.21 166.664H312.361C312.289 166.664 312.247 165.784 311.964 165.274C305.809 154.142 297.673 142.722 290.833 131.837C289.901 130.355 288.8 128.652 288.172 127.036C286.633 128.497 285.316 130.69 284.143 132.527C276.922 143.854 270.185 155.501 262.697 166.664H232.59L271.719 108.256L234.134 50.353H263.726C272.213 62.9002 279.753 76.0391 288.43 88.4319L312.103 50.353H341.181Z" fill="#171717"/>
<path d="M372.95 49.962C392.486 48.1607 414.277 51.0325 434.044 49.8642C448.269 51.1508 458.289 61.2688 460.075 75.2982C459.823 95.7194 460.358 116.161 460.034 136.582C459.771 153.123 450.204 164.502 433.571 166.684C413.839 165.495 392.373 168.223 372.847 166.643C357.264 165.382 347.172 152.732 346.302 137.607C347.218 118.508 345.149 98.3904 346.302 79.4153C347.274 63.384 356.327 51.4957 372.95 49.9672V49.962ZM371.921 63.8524C365.421 65.1338 361.103 69.812 360.249 76.3686L360.202 139.145C361.129 146.489 365.936 151.77 373.326 152.784H434.091C441.069 151.61 445.505 146.52 446.699 139.66V76.3223C445.758 69.5804 440.879 64.6089 434.091 63.7134L371.921 63.8524Z" fill="#171717"/>
<path d="M220.753 50.353H195.021V166.664H220.753V50.353Z" fill="#171717"/>
<path d="M417.864 101.303L383.65 135.795C376.512 140.612 369.26 134.158 373.362 126.537C384.617 115.044 396.377 104.031 407.056 92.0396H394.447C393.819 92.0396 391.627 89.8318 391.179 89.1319C388.529 85.0147 390.577 80.249 395.06 78.7514L426.381 78.6382C429.031 78.8029 430.56 81.1908 431.239 83.5582L431.157 113.305C429.634 118.045 424.163 120.031 420.18 116.753C419.433 116.141 417.874 113.66 417.874 112.883V101.303H417.864Z" fill="#171717"/>
</svg>