<svg xmlns="http://www.w3.org/2000/svg" width="183" height="93" viewBox="0 0 183 93" fill="none">
<path d="M142.188 30L157.438 0H181.688L156 45.1875L182.312 91H157.875L142.188 60.5L126.438 91H102L128.312 45.1875L102.625 0H126.875L142.188 30Z" fill="#637CF8"/>
<path d="M97.125 91H76V0H97.125V91Z" fill="#637CF8"/>
<path d="M71.125 0V59.4375C71.125 66.5625 69.625 72.5625 66.625 77.4375C63.6667 82.3125 59.5208 86 54.1875 88.5C48.8542 91 42.6875 92.25 35.6875 92.25C28.6875 92.25 22.5 91 17.125 88.5C11.75 86 7.54167 82.3125 4.5 77.4375C1.5 72.5625 0 66.5625 0 59.4375V0H21.25V59.4375C21.25 63.1875 21.8125 66.2292 22.9375 68.5625C24.0625 70.8542 25.6875 72.5417 27.8125 73.625C29.9792 74.6667 32.6042 75.1875 35.6875 75.1875C38.8125 75.1875 41.4167 74.6667 43.5 73.625C45.625 72.5417 47.2292 70.8542 48.3125 68.5625C49.3958 66.2292 49.9375 63.1875 49.9375 59.4375V0H71.125Z" fill="#637CF8"/>
</svg>