<svg width="214" height="63" viewBox="0 0 214 63" fill="none" xmlns="http://www.w3.org/2000/svg">
<path d="M53.8282 0H0V10.2857H53.8282V0Z" fill="#EAEAEA"/>
<path d="M53.8281 -0.000419617V52.7139H64.3312V-0.000419617H53.8281Z" fill="#EAEAEA"/>
<path d="M64.3313 52.7139H0V62.9996H64.3313V52.7139Z" fill="#EAEAEA"/>
<path d="M0 10.2857L0 36H10.5031L10.5031 10.2857H0Z" fill="#EAEAEA"/>
<path d="M139.166 0H74.8345V10.2857H139.166V0Z" fill="#EAEAEA"/>
<path d="M74.8345 10.2857V63H85.3375V10.2857H74.8345Z" fill="#EAEAEA"/>
<path d="M139.166 52.7139H85.3374V62.9996H139.166V52.7139Z" fill="#EAEAEA"/>
<path d="M128.663 36.0002V52.7852H139.166V36.0002H128.663Z" fill="#EAEAEA"/>
<path d="M203.497 10.2857V63H214V10.2857H203.497Z" fill="#EAEAEA"/>
<path d="M149.669 10.2857V63H160.172V10.2857H149.669Z" fill="#EAEAEA"/>
<path d="M214 0H149.669V10.2857H214V0Z" fill="#EAEAEA"/>
<path d="M176.583 10.2857V36H187.086V10.2857H176.583Z" fill="#EAEAEA"/>
<path d="M118.159 25.7143V36H128.662V25.7143H118.159Z" fill="#EAEAEA"/>
</svg>
